<?xml version="1.0" encoding="utf-8"?>
<svg width="173.464" height="32" viewBox="0 0 173.464 32" fill="none" xmlns="http://www.w3.org/2000/svg">
  <g id="Group">
    <g id="Group">
      <g transform="translate(7 0)">
        <path id="Oval" d="M0 16C0 7.16344 4.47715 0 10 0C15.5228 0 20 7.16344 20 16C20 24.8366 15.5228 32 10 32C4.47715 32 0 24.8366 0 16Z" />
        <path d="M10 0C4.47715 0 0 7.16344 0 16C0 24.8366 4.47715 32 10 32C15.5228 32 20 24.8366 20 16C20 7.16344 15.5228 0 10 0ZM6.32093 25.1937Q4 21.4802 4 16Q4 10.5198 6.32093 6.80629Q8.07486 4 10 4Q11.9251 4 13.6791 6.80629Q16 10.5198 16 16Q16 21.4802 13.6791 25.1937Q11.9251 28 10 28Q8.07485 28 6.32093 25.1937Z" fill="#00EBC4" fill-rule="evenodd" />
      </g>
      <g>
        <path id="Oval" d="M0 16C0 7.16344 4.47715 0 10 0C15.5228 0 20 7.16344 20 16C20 24.8366 15.5228 32 10 32C4.47715 32 0 24.8366 0 16Z" />
        <path d="M10 0C4.47715 0 0 7.16344 0 16C0 24.8366 4.47715 32 10 32C15.5228 32 20 24.8366 20 16C20 7.16344 15.5228 0 10 0ZM6.32093 25.1937Q4 21.4802 4 16Q4 10.5198 6.32093 6.80629Q8.07486 4 10 4Q11.9251 4 13.6791 6.80629Q16 10.5198 16 16Q16 21.4802 13.6791 25.1937Q11.9251 28 10 28Q8.07485 28 6.32093 25.1937Z" fill="#5600F5" fill-rule="evenodd" />
      </g>
    </g>
    <path id="Path" d="M0 14.0186L0 14.3262C0 15.4785 0.13916 16.5454 0.41748 17.5269C0.695801 18.5083 1.09863 19.3555 1.62598 20.0684C2.15332 20.791 2.80273 21.355 3.57422 21.7603C4.3457 22.1655 5.22949 22.3682 6.22559 22.3682C6.69434 22.3682 7.13135 22.3218 7.53662 22.229C7.94189 22.1362 8.31543 22.0068 8.65723 21.8408C8.9209 21.7041 9.1748 21.543 9.41895 21.3574C9.66309 21.1719 9.8877 20.9619 10.0928 20.7275L10.0928 28.1689L14.1797 28.1689L14.1797 6.22559L10.5908 6.22559L10.3418 7.83691C10.1367 7.58301 9.91699 7.35352 9.68262 7.14844C9.44824 6.94336 9.19922 6.7627 8.93555 6.60645C8.56445 6.3916 8.15674 6.22559 7.7124 6.1084C7.26807 5.99121 6.78223 5.93262 6.25488 5.93262C5.24902 5.93262 4.35791 6.12793 3.58154 6.51855C2.80518 6.90918 2.15332 7.45605 1.62598 8.15918C1.08887 8.87207 0.683594 9.72656 0.410156 10.7227C0.136719 11.7188 0 12.8174 0 14.0186L0 14.0186ZM4.07227 14.3262L4.07227 14.0186C4.07227 13.3447 4.1333 12.7173 4.25537 12.1362C4.37744 11.5552 4.57031 11.0498 4.83398 10.6201C5.08789 10.1904 5.41748 9.85107 5.82275 9.60205C6.22803 9.35303 6.71875 9.22852 7.29492 9.22852C7.63672 9.22852 7.95166 9.2627 8.23975 9.33105C8.52783 9.39941 8.78418 9.49707 9.00879 9.62402C9.24316 9.76074 9.44824 9.92432 9.62402 10.1147C9.7998 10.3052 9.95605 10.5225 10.0928 10.7666L10.0928 17.5049C9.95605 17.7588 9.7998 17.9858 9.62402 18.186C9.44824 18.3862 9.24316 18.5547 9.00879 18.6914C8.77441 18.8184 8.51318 18.9185 8.2251 18.9917C7.93701 19.0649 7.61719 19.1016 7.26562 19.1016C6.68945 19.1016 6.19873 18.9746 5.79346 18.7207C5.38818 18.4668 5.05859 18.1201 4.80469 17.6807C4.55078 17.251 4.36523 16.748 4.24805 16.1719C4.13086 15.5957 4.07227 14.9805 4.07227 14.3262L4.07227 14.3262ZM28.7549 22.0752L32.4463 22.0752L32.4463 6.22559L28.3594 6.22559L28.3594 17.3438C28.2324 17.5977 28.0811 17.8271 27.9053 18.0322C27.7295 18.2373 27.5293 18.4131 27.3047 18.5596C27.041 18.7256 26.7358 18.8525 26.3892 18.9404C26.0425 19.0283 25.6543 19.0723 25.2246 19.0723C24.7461 19.0723 24.3408 19.0137 24.0088 18.8965C23.6768 18.7793 23.4082 18.584 23.2031 18.3105C22.998 18.0469 22.8491 17.6953 22.7563 17.2559C22.6636 16.8164 22.6172 16.2744 22.6172 15.6299L22.6172 6.22559L18.5449 6.22559L18.5449 15.6006C18.5449 16.8018 18.6792 17.8296 18.9478 18.6841C19.2163 19.5386 19.5947 20.2393 20.083 20.7861C20.5713 21.3428 21.1572 21.748 21.8408 22.002C22.5244 22.2559 23.2764 22.3828 24.0967 22.3828C24.9951 22.3828 25.8228 22.1582 26.5796 21.709C27.3364 21.2598 27.9834 20.6396 28.5205 19.8486L28.7549 22.0752L28.7549 22.0752ZM46.3184 22.0752L50.4492 22.0752L50.4492 21.8262C50.2441 21.4258 50.0879 20.9473 49.9805 20.3906C49.873 19.834 49.8193 19.1309 49.8193 18.2812L49.8193 11.4844C49.8193 10.5664 49.6484 9.7583 49.3066 9.06006C48.9648 8.36182 48.4912 7.7832 47.8857 7.32422C47.2803 6.86523 46.5649 6.51855 45.7397 6.28418C44.9146 6.0498 44.0234 5.93262 43.0664 5.93262C42.002 5.93262 41.0571 6.06689 40.2319 6.33545C39.4067 6.604 38.7109 6.96777 38.1445 7.42676C37.5684 7.88574 37.1313 8.41797 36.8335 9.02344C36.5356 9.62891 36.3867 10.2686 36.3867 10.9424L40.459 10.9424C40.459 10.6592 40.5005 10.4004 40.5835 10.166C40.6665 9.93164 40.7959 9.73145 40.9717 9.56543C41.167 9.37988 41.4209 9.23584 41.7334 9.1333C42.0459 9.03076 42.417 8.97949 42.8467 8.97949C43.335 8.97949 43.7622 9.04053 44.1284 9.1626C44.4946 9.28467 44.7998 9.45801 45.0439 9.68262C45.2783 9.89746 45.4541 10.1538 45.5713 10.4517C45.6885 10.7495 45.7471 11.084 45.7471 11.4551L45.7471 12.3926L43.4766 12.3926C42.3047 12.3926 41.2671 12.4976 40.3638 12.7075C39.4604 12.9175 38.7012 13.2227 38.0859 13.623C37.4023 14.0625 36.8896 14.6216 36.5479 15.3003C36.2061 15.979 36.0352 16.7578 36.0352 17.6367C36.0352 18.3203 36.1719 18.9526 36.4453 19.5337C36.7188 20.1147 37.0996 20.6152 37.5879 21.0352C38.0762 21.4551 38.6597 21.7822 39.3384 22.0166C40.0171 22.251 40.7617 22.3682 41.5723 22.3682C42.0703 22.3682 42.5342 22.3218 42.9639 22.229C43.3936 22.1362 43.7891 22.0068 44.1504 21.8408C44.502 21.6846 44.8242 21.499 45.1172 21.2842C45.4102 21.0693 45.6689 20.8398 45.8936 20.5957C45.9424 20.8789 46.001 21.1475 46.0693 21.4014C46.1377 21.6553 46.2207 21.8799 46.3184 22.0752L46.3184 22.0752ZM42.4365 19.2188C42.0557 19.2188 41.7212 19.1724 41.4331 19.0796C41.145 18.9868 40.9033 18.8623 40.708 18.7061C40.5127 18.54 40.3638 18.3374 40.2612 18.0981C40.1587 17.8589 40.1074 17.5977 40.1074 17.3145C40.1074 16.9531 40.1758 16.6187 40.3125 16.311C40.4492 16.0034 40.6592 15.7373 40.9424 15.5127C41.2256 15.2979 41.5918 15.1294 42.041 15.0073C42.4902 14.8853 43.0322 14.8242 43.667 14.8242L45.7471 14.8242L45.7471 17.5488C45.6299 17.7539 45.4688 17.9565 45.2637 18.1567C45.0586 18.3569 44.8145 18.5352 44.5312 18.6914C44.248 18.8477 43.9307 18.9746 43.5791 19.0723C43.2275 19.1699 42.8467 19.2188 42.4365 19.2188L42.4365 19.2188ZM54.4189 22.0752L58.5059 22.0752L58.5059 10.8105C58.6426 10.5957 58.7939 10.4004 58.96 10.2246C59.126 10.0488 59.3115 9.89746 59.5166 9.77051C59.7705 9.59473 60.061 9.46289 60.3882 9.375C60.7153 9.28711 61.0742 9.24316 61.4648 9.24316C61.9336 9.24316 62.3535 9.28955 62.7246 9.38232C63.0957 9.4751 63.4131 9.63867 63.6768 9.87305C63.9404 10.1074 64.1431 10.4272 64.2847 10.8325C64.4263 11.2378 64.4971 11.7529 64.4971 12.3779L64.4971 22.0752L68.5693 22.0752L68.5693 12.3193C68.5693 11.167 68.4351 10.188 68.1665 9.38232C67.8979 8.57666 67.5244 7.91504 67.0459 7.39746C66.5576 6.88965 65.9814 6.51855 65.3174 6.28418C64.6533 6.0498 63.9209 5.93262 63.1201 5.93262C62.4951 5.93262 61.9043 6.02051 61.3477 6.19629C60.791 6.37207 60.2783 6.62598 59.8096 6.95801C59.5361 7.15332 59.2773 7.37305 59.0332 7.61719C58.7891 7.86133 58.5645 8.12988 58.3594 8.42285L58.1104 6.22559L54.4189 6.22559L54.4189 22.0752L54.4189 22.0752ZM79.8926 2.34375L75.8203 2.34375L75.8203 6.22559L72.2021 6.22559L72.2021 9.22852L75.8203 9.22852L75.8203 16.4355C75.8203 17.4805 75.957 18.3765 76.2305 19.1235C76.5039 19.8706 76.8945 20.4834 77.4023 20.9619C77.9004 21.4502 78.5034 21.8091 79.2114 22.0386C79.9194 22.2681 80.708 22.3828 81.5771 22.3828C82.0264 22.3828 82.4829 22.3608 82.9468 22.3169C83.4106 22.2729 83.8574 22.2119 84.2871 22.1338C84.7168 22.0557 85.1221 21.9556 85.5029 21.8335C85.8838 21.7114 86.2158 21.5674 86.499 21.4014L86.1035 18.6035C85.918 18.6523 85.6958 18.7012 85.437 18.75C85.1782 18.7988 84.9023 18.8428 84.6094 18.8818C84.3066 18.9307 83.9917 18.9697 83.6646 18.999C83.3374 19.0283 83.0176 19.043 82.7051 19.043C82.2754 19.043 81.8872 18.9941 81.5405 18.8965C81.1938 18.7988 80.8984 18.6328 80.6543 18.3984C80.4102 18.1738 80.2222 17.8687 80.0903 17.4829C79.9585 17.0972 79.8926 16.6162 79.8926 16.04L79.8926 9.22852L85.8105 9.22852L85.8105 6.22559L79.8926 6.22559L79.8926 2.34375L79.8926 2.34375ZM91.5088 6.22559L91.5088 9.55078L96.0205 9.55078L96.0205 18.7646L91.5088 18.7646L91.5088 22.0752L104.429 22.0752L104.429 18.7646L100.137 18.7646L100.137 6.22559L91.5088 6.22559L91.5088 6.22559ZM95.7275 2.16797C95.7275 2.48047 95.7837 2.771 95.896 3.03955C96.0083 3.30811 96.167 3.53516 96.3721 3.7207C96.5771 3.91602 96.8237 4.06738 97.1118 4.1748C97.3999 4.28223 97.7197 4.33594 98.0713 4.33594C98.7939 4.33594 99.3677 4.1333 99.7925 3.72803C100.217 3.32275 100.43 2.80273 100.43 2.16797C100.43 1.5332 100.217 1.01318 99.7925 0.60791C99.3677 0.202637 98.7939 0 98.0713 0C97.7197 0 97.3999 0.0537109 97.1118 0.161133C96.8237 0.268555 96.5771 0.415039 96.3721 0.600586C96.167 0.795898 96.0083 1.02783 95.896 1.29639C95.7837 1.56494 95.7275 1.85547 95.7275 2.16797L95.7275 2.16797ZM115.444 19.1162C114.79 19.1162 114.25 18.9844 113.826 18.7207C113.401 18.457 113.066 18.1055 112.822 17.666C112.568 17.2363 112.393 16.7358 112.295 16.1646C112.197 15.5933 112.148 15 112.148 14.3848L112.148 13.9453C112.148 13.3398 112.2 12.7539 112.302 12.1875C112.405 11.6211 112.583 11.1182 112.837 10.6787C113.081 10.2393 113.413 9.8877 113.833 9.62402C114.253 9.36035 114.785 9.22852 115.43 9.22852C115.869 9.22852 116.274 9.3042 116.646 9.45557C117.017 9.60693 117.334 9.80957 117.598 10.0635C117.861 10.3174 118.062 10.6201 118.198 10.9717C118.335 11.3232 118.394 11.6943 118.374 12.085L122.212 12.085C122.231 11.1475 122.075 10.3003 121.743 9.54346C121.411 8.78662 120.947 8.13965 120.352 7.60254C119.746 7.0752 119.028 6.66504 118.198 6.37207C117.368 6.0791 116.465 5.93262 115.488 5.93262C114.268 5.93262 113.196 6.14258 112.273 6.5625C111.35 6.98242 110.576 7.55371 109.951 8.27637C109.326 8.99902 108.857 9.84619 108.545 10.8179C108.232 11.7896 108.076 12.832 108.076 13.9453L108.076 14.3848C108.076 15.498 108.235 16.5405 108.552 17.5122C108.87 18.4839 109.341 19.3311 109.966 20.0537C110.581 20.7764 111.353 21.3452 112.28 21.7603C113.208 22.1753 114.287 22.3828 115.518 22.3828C116.426 22.3828 117.288 22.2388 118.103 21.9507C118.918 21.6626 119.634 21.2646 120.249 20.7568C120.864 20.249 121.35 19.6436 121.707 18.9404C122.063 18.2373 122.231 17.4756 122.212 16.6553L118.374 16.6553C118.394 17.0264 118.328 17.3633 118.176 17.666C118.025 17.9688 117.812 18.2275 117.539 18.4424C117.266 18.6572 116.948 18.8232 116.587 18.9404C116.226 19.0576 115.845 19.1162 115.444 19.1162L115.444 19.1162ZM136.333 22.0752L140.464 22.0752L140.464 21.8262C140.259 21.4258 140.103 20.9473 139.995 20.3906C139.888 19.834 139.834 19.1309 139.834 18.2812L139.834 11.4844C139.834 10.5664 139.663 9.7583 139.321 9.06006C138.979 8.36182 138.506 7.7832 137.9 7.32422C137.295 6.86523 136.58 6.51855 135.754 6.28418C134.929 6.0498 134.038 5.93262 133.081 5.93262C132.017 5.93262 131.072 6.06689 130.247 6.33545C129.421 6.604 128.726 6.96777 128.159 7.42676C127.583 7.88574 127.146 8.41797 126.848 9.02344C126.55 9.62891 126.401 10.2686 126.401 10.9424L130.474 10.9424C130.474 10.6592 130.515 10.4004 130.598 10.166C130.681 9.93164 130.811 9.73145 130.986 9.56543C131.182 9.37988 131.436 9.23584 131.748 9.1333C132.061 9.03076 132.432 8.97949 132.861 8.97949C133.35 8.97949 133.777 9.04053 134.143 9.1626C134.509 9.28467 134.814 9.45801 135.059 9.68262C135.293 9.89746 135.469 10.1538 135.586 10.4517C135.703 10.7495 135.762 11.084 135.762 11.4551L135.762 12.3926L133.491 12.3926C132.319 12.3926 131.282 12.4976 130.378 12.7075C129.475 12.9175 128.716 13.2227 128.101 13.623C127.417 14.0625 126.904 14.6216 126.562 15.3003C126.221 15.979 126.05 16.7578 126.05 17.6367C126.05 18.3203 126.187 18.9526 126.46 19.5337C126.733 20.1147 127.114 20.6152 127.603 21.0352C128.091 21.4551 128.674 21.7822 129.353 22.0166C130.032 22.251 130.776 22.3682 131.587 22.3682C132.085 22.3682 132.549 22.3218 132.979 22.229C133.408 22.1362 133.804 22.0068 134.165 21.8408C134.517 21.6846 134.839 21.499 135.132 21.2842C135.425 21.0693 135.684 20.8398 135.908 20.5957C135.957 20.8789 136.016 21.1475 136.084 21.4014C136.152 21.6553 136.235 21.8799 136.333 22.0752L136.333 22.0752ZM132.451 19.2188C132.07 19.2188 131.736 19.1724 131.448 19.0796C131.16 18.9868 130.918 18.8623 130.723 18.7061C130.527 18.54 130.378 18.3374 130.276 18.0981C130.173 17.8589 130.122 17.5977 130.122 17.3145C130.122 16.9531 130.19 16.6187 130.327 16.311C130.464 16.0034 130.674 15.7373 130.957 15.5127C131.24 15.2979 131.606 15.1294 132.056 15.0073C132.505 14.8853 133.047 14.8242 133.682 14.8242L135.762 14.8242L135.762 17.5488C135.645 17.7539 135.483 17.9565 135.278 18.1567C135.073 18.3569 134.829 18.5352 134.546 18.6914C134.263 18.8477 133.945 18.9746 133.594 19.0723C133.242 19.1699 132.861 19.2188 132.451 19.2188L132.451 19.2188Z" fill="#5600F5" transform="translate(33 1.916)" />
  </g>
</svg>